<svg height="480pt" viewBox="-56 0 480 480.0399" width="480pt" xmlns="http://www.w3.org/2000/svg"><path d="m280 472.039062-80-53.359374v-186.640626h-32v186.640626l-80 53.359374zm0 0" fill="#aae1f9"/><path d="m208.800781 461.800781c-14.523437-3.355469-24.808593-16.292969-24.800781-31.199219v-120c.027344-14.464843 5.78125-28.328124 16-38.5625v-40h-32v186.640626l-80 53.359374h165.359375zm0 0" fill="#57b7eb"/><path d="m182.640625 256.039062-174.640625-192h352zm0 0" fill="#aae1f9"/><path d="m257.921875 144.039062c-15.222656 16.488282-36.667969 25.824219-59.105469 25.734376-22.441406-.09375-43.808594-9.601563-58.894531-26.214844l-72-79.4375h-59.921875l174.640625 191.917968 177.359375-192h-28.320312zm0 0" fill="#57b7eb"/><path d="m184 104.039062c-48.070312-7.988281-96.929688-10.164062-145.519531-6.480468l144.160156 158.480468 133.679687-144.71875c-44.238281 2.417969-88.609374-.023437-132.320312-7.28125zm0 0" fill="#f89c8d"/><path d="m257.921875 144.039062c-15.222656 16.488282-36.667969 25.824219-59.105469 25.734376-22.441406-.09375-43.808594-9.601563-58.894531-26.214844l-43.199219-47.519532c-19.441406-.398437-38.882812 0-58.242187 1.601563l144.160156 158.398437 133.679687-144.71875c-9.679687.480469-19.359374.800782-29.121093.800782zm0 0" fill="#f8664f"/><path d="m216 160.039062c0 17.675782-14.324219 32-32 32-17.671875 0-32-14.324218-32-32 0-17.671874 14.328125-32 32-32 17.675781 0 32 14.328126 32 32zm0 0" fill="#c4f236"/><path d="m200 176.039062c-17.671875 0-32-14.324218-32-32-.003906-4.53125.980469-9.007812 2.882812-13.121093-13.050781 5.804687-20.675781 19.546875-18.691406 33.691406 1.984375 14.140625 13.097656 25.253906 27.242188 27.242187 14.140625 1.984376 27.886718-5.644531 33.6875-18.691406-4.113282 1.902344-8.589844 2.882813-13.121094 2.878906zm0 0" fill="#a1d51c"/><g fill="#39519d"><path d="m367.359375 60.839844c-1.273437-2.925782-4.167969-4.8125-7.359375-4.800782h-51.359375c-4.417969 0-8 3.582032-8 8 0 4.417969 3.582031 8 8 8h33.039063l-158.957032 172.160157-34.320312-37.679688 1.519531-1.039062 11.4375-12.5625c6.652344 4.609375 14.546875 7.09375 22.640625 7.121093 22.09375 0 40-17.90625 40-40-.039062-9.253906-3.320312-18.199218-9.277344-25.277343l15.4375-16.882813c13.679688 1.199219 27.359375 1.921875 41.039063 2.242188 4.421875 0 8-3.582032 8-8 0-4.417969-3.578125-8-8-8-9.199219 0-18.398438-.640625-27.597657-1.28125l82.320313-89.359375c3.003906-3.269531 2.789063-8.355469-.480469-11.359375-3.269531-3.003906-8.355468-2.789063-11.359375.480468l-90.082031 98.558594c-12.878906-1.28125-25.757812-2.878906-38.480469-5.039062-47.382812-7.863282-95.523437-10.144532-143.4375-6.800782l-16-17.28125h196.558594c4.417969 0 8-3.582031 8-8 0-4.417968-3.582031-8-8-8h-214.640625c-3.15625.007813-6.015625 1.871094-7.292969 4.761719-1.28125 2.886719-.7421872 6.253907 1.375 8.597657l157.917969 173.601562v171.441406l-76.398438 50.957032c-2.914062 1.957031-4.210937 5.585937-3.199218 8.945312 1.007812 3.359375 4.089844 5.667969 7.597656 5.695312h112c4.417969 0 8-3.582031 8-8 0-4.417968-3.582031-8-8-8h-85.597656l58-38.640624c2.257812-1.484376 3.613281-4.015626 3.597656-6.71875v-158.078126l.722656.796876c1.511719 1.675781 3.660156 2.636718 5.917969 2.640624 2.246094.015626 4.394531-.914062 5.921875-2.558593l177.277344-192c2.183594-2.320313 2.78125-5.714844 1.519531-8.640625zm-183.359375 123.199218c-10.460938.070313-19.761719-6.644531-22.988281-16.597656-3.226563-9.949218.363281-20.847656 8.875-26.929687s19.984375-5.949219 28.355469.328125c8.238281 6.179687 11.617187 16.929687 8.394531 26.714844-3.226563 9.78125-12.335938 16.417968-22.636719 16.484374zm-1.277344-72c9.117188 1.519532 18.398438 2.722657 27.679688 3.839844l-8 8.882813c-5.652344-3.066407-11.972656-4.6875-18.402344-4.722657-22.089844 0-40 17.910157-40 40 .007812 7.542969 2.171875 14.929688 6.242188 21.28125l-12.160157 13.28125-82.082031-90.082031c42.386719-1.996093 84.867188.527344 126.722656 7.519531zm0 0"/><path d="m192 160.039062c0 4.417969-3.582031 8-8 8s-8-3.582031-8-8c0-4.417968 3.582031-8 8-8s8 3.582032 8 8zm0 0"/><path d="m284.402344 465.398438-76.402344-50.957032v-137.203125c0-4.417969-3.582031-8-8-8s-8 3.582031-8 8v141.441407c-.011719 2.703124 1.34375 5.234374 3.601562 6.71875l58 38.640624h-21.601562c-4.417969 0-8 3.582032-8 8 0 4.417969 3.582031 8 8 8h48c3.507812-.027343 6.589844-2.335937 7.601562-5.695312 1.007813-3.359375-.289062-6.988281-3.199218-8.945312zm0 0"/></g></svg>